<?xml version="1.0" encoding="utf-8"?>
<!-- Generator: Adobe Illustrator 16.0.0, SVG Export Plug-In . SVG Version: 6.00 Build 0)  -->
<!DOCTYPE svg PUBLIC "-//W3C//DTD SVG 1.1//EN" "http://www.w3.org/Graphics/SVG/1.1/DTD/svg11.dtd">
<svg version="1.1" id="图层_1" xmlns="http://www.w3.org/2000/svg" xmlns:xlink="http://www.w3.org/1999/xlink" x="0px" y="0px"
	 width="694.49px" height="779.53px" viewBox="0 0 694.49 779.53" enable-background="new 0 0 694.49 779.53" xml:space="preserve">
<g>
	<path fill="#F4F5F1" d="M237.663,309.285l1.266,0.703l-7.172,14.063l6.609,14.063l-1.266,0.703l-6.891-14.766L237.663,309.285z
		 M241.882,309.426l1.266,0.563l-6.75,14.063l6.75,14.063l-1.266,0.703l-7.031-14.625L241.882,309.426z"/>
	<path fill="#F4F5F1" d="M269.884,317.758h-0.65c-0.328-1.992-0.797-3.211-1.406-3.656c-0.316-0.223-0.721-0.334-1.213-0.334h-6.275
		v17.789c0,1.008,0.229,1.705,0.686,2.092c0.41,0.352,1.131,0.527,2.162,0.527h1.336v0.686h-11.338v-0.686h1.318
		c1.031,0,1.752-0.176,2.162-0.527c0.457-0.387,0.686-1.084,0.686-2.092v-17.789h-6.258c-0.891,0-1.553,0.469-1.986,1.406
		c-0.211,0.457-0.428,1.318-0.65,2.584h-0.633l0.563-5.836h0.686c0.059,0.363,0.434,0.545,1.125,0.545h17.314
		c0.68,0,1.049-0.182,1.107-0.545h0.686L269.884,317.758z"/>
	<path fill="#F4F5F1" d="M281.397,334.861h-8.754v-0.686c1.125-0.047,1.863-0.293,2.215-0.738c0.328-0.41,0.492-1.195,0.492-2.355
		v-15.328c0-0.973-0.211-1.646-0.633-2.021c-0.375-0.328-1.066-0.521-2.074-0.58v-0.686h8.754v0.686c-1.512,0-2.432,0.363-2.76,1.09
		c-0.199,0.422-0.299,1.031-0.299,1.828v15.258c0,1.418,0.393,2.279,1.178,2.584c0.445,0.176,1.072,0.264,1.881,0.264V334.861z"/>
	<path fill="#F4F5F1" d="M315.271,334.861h-9.246v-0.686c2.238,0,3.305-0.791,3.199-2.373l-1.037-16.137h-0.088l-8.947,19.195
		h-0.844l-9.246-19.195l-0.967,16.207c-0.082,1.465,0.879,2.232,2.883,2.303v0.686h-7.488v-0.686c1.605,0,2.543-0.457,2.813-1.371
		c0.141-0.492,0.246-1.318,0.316-2.479l0.861-14.01c0.094-1.594-0.1-2.531-0.58-2.813c-0.316-0.176-0.844-0.293-1.582-0.352v-0.65
		h5.432l8.684,18.141l8.631-18.141h5.291v0.65l-1.16,0.105c-0.527,0.082-0.867,0.22-1.02,0.413s-0.217,0.489-0.193,0.888
		l1.16,16.313c0.059,0.762,0.105,1.26,0.141,1.494c0.105,0.68,0.281,1.137,0.527,1.371c0.281,0.293,1.102,0.439,2.461,0.439V334.861
		z"/>
	<path fill="#F4F5F1" d="M335.819,329.5l-0.563,5.361h-19.125v-0.686h1.002c1.77,0,2.818-0.398,3.146-1.195
		c0.164-0.41,0.246-0.996,0.246-1.758v-15.188c0-1.371-0.352-2.232-1.055-2.584c-0.41-0.199-1.02-0.299-1.828-0.299h-0.791v-0.686
		h17.279l0.299,5.01h-0.65c-0.363-2.473-1.254-3.709-2.672-3.709h-7.594v8.859h6.451c0.762,0,1.307-0.275,1.635-0.826
		c0.223-0.375,0.369-1.002,0.439-1.881h0.686v6.838h-0.686c-0.117-1.031-0.299-1.729-0.545-2.092
		c-0.34-0.504-0.973-0.756-1.898-0.756h-6.082v7.682c0,0.738,0.141,1.251,0.422,1.538s0.791,0.431,1.529,0.431h5.537
		c1.535,0,2.607-0.533,3.217-1.6c0.328-0.574,0.65-1.395,0.967-2.461H335.819z"/>
	<path fill="#F4F5F1" d="M367.161,328.023c0,2.531-1.107,4.459-3.322,5.783c-1.172,0.703-2.654,1.055-4.447,1.055h-13.184v-0.686
		h0.826c1.84,0,2.93-0.387,3.27-1.16c0.176-0.41,0.264-1.008,0.264-1.793v-14.941c0-1.172-0.17-1.969-0.51-2.391
		c-0.387-0.492-1.143-0.738-2.268-0.738h-1.266v-0.686c0.445-0.023,1.119-0.059,2.021-0.105c0.621-0.035,1.459-0.07,2.514-0.105
		c2.121-0.07,3.926-0.105,5.414-0.105c3.504,0,5.912,0.469,7.225,1.406c1.465,1.043,2.197,2.373,2.197,3.99
		c0,1.43-0.662,2.602-1.986,3.516c-0.645,0.445-1.348,0.762-2.109,0.949c2.297,0.68,3.873,1.822,4.729,3.428
		C366.95,326.225,367.161,327.086,367.161,328.023z M362.661,317.652c0-3.211-1.98-4.816-5.941-4.816
		c-0.316,0-1.371,0.035-3.164,0.105v8.895h3.92C360.933,321.836,362.661,320.441,362.661,317.652z M363.769,328.129
		c0-2.145-0.961-3.75-2.883-4.816c-0.973-0.527-2.121-0.791-3.445-0.791h-3.885v7.664c0,1.406,0.34,2.385,1.02,2.936
		c0.609,0.516,1.635,0.773,3.076,0.773C361.729,333.895,363.769,331.973,363.769,328.129z"/>
	<path fill="#F4F5F1" d="M393.247,334.861h-9.896v-0.686h0.932c0.867,0,1.453-0.035,1.758-0.105
		c0.703-0.164,1.055-0.539,1.055-1.125c0-0.293-0.129-0.785-0.387-1.477l-2.426-6.539h-7.453l-2.074,5.643
		c-0.48,1.313-0.721,2.068-0.721,2.268c0,0.891,0.973,1.336,2.918,1.336h0.563v0.686H369.2v-0.686
		c1.465-0.047,2.414-0.439,2.848-1.178c0.281-0.48,0.627-1.277,1.037-2.391l6.557-17.895l-0.316-0.791h3.129l7.523,19.986
		c0.445,1.172,1.031,1.869,1.758,2.092c0.375,0.117,0.879,0.176,1.512,0.176V334.861z M383.667,323.348l-3.164-8.402l-3.059,8.402
		H383.667z"/>
	<path fill="#F4F5F1" d="M422.075,313.152c-1.09,0-1.822,0.07-2.197,0.211c-0.715,0.246-1.072,0.803-1.072,1.67v20.074h-0.932
		l-18.65-19.512v15.451c0,1.652,0.434,2.613,1.301,2.883c0.492,0.164,1.271,0.246,2.338,0.246v0.686h-8.367v-0.686h0.158
		c1.969,0,2.953-0.803,2.953-2.408v-17.719c-0.82-0.563-1.828-0.861-3.023-0.896v-0.686h5.643l16.963,17.684v-14.326
		c0-1.371-0.445-2.18-1.336-2.426c-0.504-0.141-1.236-0.223-2.197-0.246v-0.686h8.42V313.152z"/>
	<path fill="#F4F5F1" d="M447.862,334.861h-10.564v-0.686c1.57-0.023,2.355-0.357,2.355-1.002c0-0.703-1.477-2.531-4.43-5.484
		c-0.832-0.832-1.43-1.412-1.793-1.74c-0.844-0.727-1.529-1.184-2.057-1.371c-0.305-0.094-0.645-0.141-1.02-0.141
		c-0.152,0-0.305,0.006-0.457,0.018v6.732c0,1.125,0.199,1.904,0.598,2.338s1.154,0.65,2.268,0.65h0.475v0.686h-9.861v-0.686h0.65
		c1.043,0,1.784-0.185,2.224-0.554s0.659-1.058,0.659-2.065v-15.803c0-1.008-0.234-1.705-0.703-2.092
		c-0.422-0.34-1.148-0.51-2.18-0.51h-0.65v-0.686h9.721v0.686h-0.334c-1.078,0-1.825,0.208-2.241,0.624s-0.624,1.157-0.624,2.224
		v7.77c1.277-0.129,2.619-0.896,4.025-2.303c1.91-1.91,3.357-3.732,4.342-5.467c0.445-0.785,0.668-1.359,0.668-1.723
		c0-0.75-0.832-1.125-2.496-1.125v-0.686h9.475v0.686c-2.203,0.023-3.785,0.516-4.746,1.477c-0.352,0.352-0.867,1.025-1.547,2.021
		c-0.504,0.738-1.002,1.477-1.494,2.215c-1.195,1.664-2.572,3.082-4.131,4.254c0.492,0.07,1.447,0.809,2.865,2.215
		s2.854,2.959,4.307,4.658l1.705,2.021c0.211,0.258,0.539,0.633,0.984,1.125c0.703,0.691,2.039,1.037,4.008,1.037V334.861z"/>
	<path fill="#F4F5F1" d="M452.468,338.816l-1.266-0.563l6.609-14.063l-6.609-13.922l1.266-0.703l6.891,14.484L452.468,338.816z
		 M457.53,338.816l-1.266-0.563l6.609-14.063l-6.609-13.922l1.266-0.703l6.891,14.484L457.53,338.816z"/>
	<path fill="#F4F5F1" d="M253.87,357.407c-0.563,1.782-1.079,3.445-1.547,4.992c-0.47,1.547-1.173,3.399-2.109,5.555
		c1.874,2.344,3.14,4.219,3.797,5.625c0.655,1.406,0.679,2.602,0.07,3.586c-0.611,0.984-1.22,0.611-1.828-1.125
		c-0.611-1.734-1.617-3.773-3.023-6.117c-0.657,1.314-1.642,2.931-2.953,4.852c-1.314,1.922-3.094,3.821-5.344,5.695l-0.281-0.422
		c3.186-3.467,5.671-7.405,7.453-11.813c-1.782-2.905-3.797-5.625-6.047-8.156l0.281-0.422c2.624,2.344,4.827,4.594,6.609,6.75
		c0.936-2.25,1.874-5.39,2.813-9.422h-8.438l-1.266,0.281l-1.125-1.125h10.688l1.547-1.688l2.109,2.109L253.87,357.407z
		 M261.886,361.485l3.094,1.406l-0.984,0.844c0.563,4.781,1.639,8.626,3.234,11.531c1.593,2.907,3.702,4.83,6.328,5.766v0.422
		c-1.406,0-2.391,0.468-2.953,1.406c-2.531-2.439-4.267-4.992-5.203-7.664c-0.938-2.672-1.595-5.977-1.969-9.914
		c-0.751,5.625-2.274,9.751-4.57,12.375c-2.298,2.625-5.322,4.546-9.07,5.766l-0.141-0.563c3.938-1.688,6.891-4.17,8.859-7.453
		C260.479,372.126,261.604,367.486,261.886,361.485z M267.792,364.438l1.969-4.359h-10.125c-1.22,2.72-2.767,5.297-4.641,7.734
		l-0.422-0.281c1.593-2.905,2.813-5.882,3.656-8.93c0.844-3.045,1.406-5.506,1.688-7.383l3.094,1.688l-1.266,0.984
		c-0.47,1.406-1.079,3.188-1.828,5.344h9.563l1.547-1.688l2.391,2.672c-0.844,0.189-1.688,0.657-2.531,1.406
		c-0.844,0.751-1.736,1.782-2.672,3.094L267.792,364.438z"/>
	<path fill="#F4F5F1" d="M284.104,375.126c0.844,0.938,2.015,1.876,3.516,2.813c1.499,0.938,4.311,1.5,8.438,1.688
		c4.124,0.189,8.719,0,13.781-0.563v0.563c-1.782,0.47-2.72,1.217-2.813,2.25c-4.5,0-8.11-0.094-10.828-0.281
		c-2.72-0.189-4.97-0.611-6.75-1.266c-1.782-0.655-3.164-1.523-4.148-2.602c-0.984-1.077-1.712-1.617-2.18-1.617
		c-0.47,0-1.266,0.563-2.391,1.688s-1.876,2.017-2.25,2.672l-1.969-1.969c1.499-1.217,3.421-2.342,5.766-3.375v-11.109h-0.703
		c-1.22,0-2.345,0.141-3.375,0.422l-1.266-1.266h5.203l0.984-1.406l2.109,1.547l-1.125,0.984V375.126z M279.886,352.485l0.422-0.281
		c1.593,1.033,2.742,1.876,3.445,2.531c0.703,0.657,0.984,1.336,0.844,2.039s-0.517,1.266-1.125,1.688
		c-0.611,0.422-1.033,0-1.266-1.266C281.971,355.931,281.197,354.362,279.886,352.485z M288.745,369.782v-6.188
		c0-4.311-0.048-7.405-0.141-9.281l1.969,0.984c3.28-1.593,5.295-2.953,6.047-4.078l2.109,2.391c-0.751,0-1.712,0.189-2.883,0.563
		c-1.173,0.375-2.931,0.984-5.273,1.828v14.625l5.906-2.813l0.281,0.422c-0.657,0.47-1.782,1.29-3.375,2.461
		c-1.595,1.173-2.767,2.274-3.516,3.305l-1.828-2.391C288.51,371.329,288.745,370.72,288.745,369.782z M301.12,371.048
		c1.78,0.094,2.929,0.119,3.445,0.07c0.514-0.046,0.725-0.584,0.633-1.617v-12.375h-5.625v20.25l-1.969,1.125
		c0.092-2.437,0.141-6.515,0.141-12.234c0-5.717-0.048-9.422-0.141-11.109l1.969,1.125h5.484l0.984-1.406l2.109,1.688l-1.125,0.844
		v13.359c0.092,1.595-0.751,2.72-2.531,3.375c-0.095-1.312-1.22-2.156-3.375-2.531V371.048z"/>
	<path fill="#F4F5F1" d="M320.948,362.329v14.766c0,2.063,0.046,3.797,0.141,5.203l-2.25,1.406c0.092-4.311,0.141-7.172,0.141-8.578
		v-12.797c-1.969,2.907-3.892,5.251-5.766,7.031l-0.422-0.281c2.905-4.125,5.014-7.71,6.328-10.758
		c1.312-3.045,2.25-5.601,2.813-7.664l3.234,2.109l-1.266,0.563c-1.314,2.439-2.626,4.83-3.938,7.172l1.969,1.125L320.948,362.329z
		 M328.12,365.704l2.953,1.828l-1.266,0.703c-1.876,4.5-4.313,8.25-7.313,11.25l-0.422-0.281c1.499-2.061,2.742-4.195,3.727-6.398
		C326.784,370.604,327.558,368.235,328.12,365.704z M330.089,351.079l3.375,2.109l-1.406,0.703
		c-0.844,1.595-1.688,3.188-2.531,4.781h11.672l1.406-1.688l2.813,2.813c-1.501,0-3.329,1.36-5.484,4.078l-0.422-0.281l1.969-4.078
		h-12.234c-1.782,2.813-3.61,5.111-5.484,6.891l-0.422-0.281c1.78-2.342,3.28-5.039,4.5-8.086
		C329.056,354.995,329.808,352.674,330.089,351.079z M333.323,365.845c0-1.499-0.048-3.045-0.141-4.641l3.234,1.266l-1.125,0.984
		v16.734c0.092,1.593-0.938,2.718-3.094,3.375c0-1.033-1.455-2.063-4.359-3.094l0.141-0.563c1.78,0.375,3.116,0.563,4.008,0.563
		c0.89,0,1.336-0.563,1.336-1.688V365.845z M338.104,366.688c1.969,1.782,3.608,3.423,4.922,4.922
		c1.312,1.5,1.991,2.766,2.039,3.797c0.046,1.033-0.188,1.876-0.703,2.531c-0.517,0.657-0.938,0.352-1.266-0.914
		c-0.33-1.266-1.033-2.905-2.109-4.922c-1.079-2.015-2.18-3.727-3.305-5.133L338.104,366.688z"/>
	<path fill="#F4F5F1" d="M362.714,359.938c0,10.969,0.046,18.141,0.141,21.516l-1.969,1.125v-2.953h-7.313v2.391l-1.969,1.125
		c0.093-4.406,0.141-8.789,0.141-13.148s-0.048-8.695-0.141-13.008l2.109,1.266h1.406c0.937-3.186,1.452-5.625,1.547-7.313
		l3.094,1.688c-0.938,0.47-2.204,2.344-3.797,5.625h4.641l1.406-1.406l2.109,2.109L362.714,359.938z M353.573,359.095v9h7.313v-9
		H353.573z M353.573,368.938v9.844h7.313v-9.844H353.573z M369.604,351.079l3.094,1.828c-0.752,0.47-1.923,2.391-3.516,5.766h7.594
		l1.547-1.547l2.109,2.109l-1.266,0.984c-0.189,10.969-0.446,17.18-0.773,18.633c-0.33,1.455-0.798,2.461-1.406,3.023
		c-0.611,0.563-1.571,1.077-2.883,1.547c-0.471-1.5-2.018-2.625-4.641-3.375v-0.703c2.342,0.47,4.029,0.703,5.063,0.703
		c1.03,0,1.663-0.795,1.898-2.391c0.232-1.593,0.443-7.64,0.633-18.141h-8.156c-1.688,2.72-3.47,5.016-5.344,6.891l-0.422-0.281
		c1.969-3,3.421-5.671,4.359-8.016C368.431,355.768,369.134,353.423,369.604,351.079z M367.073,364.86
		c2.25,1.688,3.632,3.094,4.148,4.219c0.514,1.125,0.397,2.158-0.352,3.094c-0.752,0.938-1.29,0.47-1.617-1.406
		c-0.33-1.875-1.149-3.703-2.461-5.484L367.073,364.86z"/>
	<path fill="#F4F5F1" d="M394.354,370.626v-6.609c-3.375,0.47-5.393,0.984-6.047,1.547l-1.266-2.531
		c1.312-0.092,2.672-1.031,4.078-2.813c1.406-1.78,2.531-3.608,3.375-5.484h-3.656c-1.22,0-2.345,0.141-3.375,0.422l-1.266-1.266
		h14.203l1.828-1.828l2.672,2.672h-9.844l2.531,1.547c-1.125,0.375-2.32,1.244-3.586,2.602c-1.266,1.36-2.696,2.742-4.289,4.148
		l11.25-0.281c-0.844-1.312-1.923-2.672-3.234-4.078l0.422-0.422c3.938,2.72,5.998,4.548,6.188,5.484
		c0.187,0.938-0.024,1.711-0.633,2.32c-0.611,0.611-1.033,0.586-1.266-0.07c-0.235-0.655-0.633-1.499-1.195-2.531
		c-2.063,0.189-4.078,0.375-6.047,0.563l2.25,1.125l-1.125,0.984v4.5h3.797l1.688-1.688l2.531,2.531h-8.016v6.75l8.016-1.547
		l0.141,0.703c-10.688,2.72-16.453,4.5-17.297,5.344l-1.547-2.813c1.593-0.187,4.5-0.609,8.719-1.266v-7.172h-5.344l-1.688,0.281
		l-1.125-1.125H394.354z M408.839,358.392v13.078c0,0.938,0.046,2.204,0.141,3.797l-2.109,0.844
		c0.092-3.094,0.141-6.585,0.141-10.477c0-3.889-0.049-7.194-0.141-9.914l3.234,1.688L408.839,358.392z M407.854,380.751v-0.703
		c2.813,0.374,4.521,0.444,5.133,0.211c0.608-0.233,0.865-0.96,0.773-2.18v-22.078c0-1.406-0.049-3-0.141-4.781l3.094,1.406
		l-1.125,0.984v25.734c0.092,2.342-0.938,3.843-3.094,4.5C412.306,382.438,410.759,381.406,407.854,380.751z"/>
	<path fill="#F4F5F1" d="M435.979,383.985c0.092-3.749,0.141-8.67,0.141-14.766c-3.751,6.376-8.719,10.828-14.906,13.359
		l-0.141-0.563c5.717-3.281,10.217-8.108,13.5-14.484h-9.141c-1.22,0-2.345,0.141-3.375,0.422l-1.266-1.266h15.328v-8.719h-8.016
		c-1.22,0-2.345,0.141-3.375,0.422l-1.266-1.266h12.656c0-2.061-0.049-4.219-0.141-6.469l3.656,1.688l-1.406,0.984v3.797h8.578
		l1.969-1.969l2.813,2.813h-13.359v8.719h2.531c2.155-2.718,3.748-5.436,4.781-8.156l2.953,2.25l-1.406,0.422
		c-1.877,2.25-3.705,4.078-5.484,5.484h6.891l2.109-2.109l2.953,2.953h-13.922c3.186,6,7.875,9.797,14.063,11.391v0.563
		c-1.688,0-2.721,0.563-3.094,1.688c-5.438-2.905-9.33-7.453-11.672-13.641h-0.703c0,8.438,0.046,13.546,0.141,15.328
		L435.979,383.985z M427.261,359.095c2.531,1.314,4.1,2.344,4.711,3.094c0.608,0.751,0.584,1.711-0.07,2.883
		c-0.657,1.173-1.266,0.984-1.828-0.563s-1.642-3.21-3.234-4.992L427.261,359.095z"/>
	<path fill="#F4F5F1" d="M104.526,418.889c0.844,0.938,2.015,1.828,3.516,2.672c1.499,0.844,3.702,1.336,6.609,1.477
		c2.905,0.141,5.625,0.164,8.156,0.07c2.531-0.093,4.827-0.233,6.891-0.422v0.563c-1.969,0.467-2.953,1.266-2.953,2.391
		c-4.126,0-7.523-0.096-10.195-0.281c-2.672-0.189-4.9-0.633-6.68-1.336c-1.782-0.703-3.164-1.547-4.148-2.531
		s-1.712-1.547-2.18-1.688c-0.47-0.141-1.266,0.329-2.391,1.406c-1.125,1.078-1.876,1.992-2.25,2.742l-2.109-2.109
		c1.78-1.218,3.749-2.25,5.906-3.094v-11.672h-1.266c-1.22,0-2.345,0.141-3.375,0.422l-1.266-1.266h5.625l0.984-1.547l2.391,1.828
		l-1.266,1.125V418.889z M99.745,394.842l0.281-0.281c1.688,0.938,2.883,1.735,3.586,2.391c0.703,0.656,1.006,1.359,0.914,2.109
		c-0.095,0.751-0.446,1.384-1.055,1.898c-0.611,0.516-1.055,0.118-1.336-1.195C101.854,398.451,101.057,396.811,99.745,394.842z
		 M107.198,401.732h17.016l2.109-2.25l2.531,3.094h-6.047c-0.844,3.375-2.063,6.469-3.656,9.281c2.437,1.876,4.17,3.328,5.203,4.359
		c1.03,1.032,1.428,2.039,1.195,3.023c-0.235,0.984-0.492,1.524-0.773,1.617c-0.281,0.094-0.681-0.304-1.195-1.195
		c-0.517-0.891-1.36-1.991-2.531-3.305c-1.173-1.313-2.18-2.343-3.023-3.094c-3.001,3.375-6.517,5.859-10.547,7.453l-0.281-0.422
		c4.405-2.813,7.545-5.577,9.422-8.297c-2.25-2.156-4.548-4.078-6.891-5.766l0.281-0.422c3.375,1.969,5.906,3.609,7.594,4.922
		c1.499-2.813,2.483-5.531,2.953-8.156h-9.422c-0.751,0-1.642,0.141-2.672,0.422L107.198,401.732z M113.948,394.842l0.281-0.281
		c2.061,1.032,3.327,1.828,3.797,2.391c0.468,0.563,0.608,1.148,0.422,1.758c-0.189,0.61-0.517,1.125-0.984,1.547
		c-0.47,0.422-0.844,0.07-1.125-1.055S115.26,396.623,113.948,394.842z"/>
	<path fill="#F4F5F1" d="M133.636,410.451h26.016l2.109-2.109l2.953,2.953h-14.203v4.781h7.313l1.828-1.828l2.672,2.672h-11.813
		v5.766c1.688,0.47,4.1,0.727,7.242,0.773c3.14,0.048,5.695-0.07,7.664-0.352v0.703c-1.688,0.373-2.626,1.125-2.813,2.25
		c-5.533-0.189-9.446-0.633-11.742-1.336c-2.298-0.703-4.173-1.617-5.625-2.742c-1.455-1.125-2.742-2.438-3.867-3.938
		c-1.782,3.938-4.408,6.75-7.875,8.438l-0.281-0.422c4.124-3.094,6.702-7.781,7.734-14.063l3.094,1.828
		c-0.563,0.375-0.984,0.797-1.266,1.266c-0.281,0.47-0.611,1.219-0.984,2.25c1.593,1.969,3.843,3.563,6.75,4.781v-10.828h-10.266
		c-1.22,0-2.345,0.141-3.375,0.422L133.636,410.451z M141.089,394.701l2.25,1.266h11.813l1.266-1.406l2.25,1.828l-1.266,0.984
		c0,5.251,0.046,8.626,0.141,10.125l-2.109,1.125v-1.828h-12.234v1.266l-2.109,0.844c0.092-2.343,0.141-4.663,0.141-6.961
		C141.229,399.646,141.181,397.232,141.089,394.701z M143.198,396.811v4.078h12.234v-4.078H143.198z M143.198,401.732v4.219h12.234
		v-4.219H143.198z"/>
	<path fill="#F4F5F1" d="M169.214,408.623h26.156l2.813-2.25l3.094,3.094h-27c-1.501,0-2.767,0.141-3.797,0.422L169.214,408.623z"/>
	<path fill="#F4F5F1" d="M223.073,395.545l-1.266,0.844c2.531,3.845,5.179,6.728,7.945,8.648c2.764,1.922,5.414,3.071,7.945,3.445
		v0.563c-1.501,0.094-2.58,0.703-3.234,1.828c-2.813-1.499-5.203-3.281-7.172-5.344c-1.969-2.062-3.938-4.828-5.906-8.297
		c-2.158,3.75-4.454,6.75-6.891,9c-2.439,2.25-5.673,4.219-9.703,5.906l-0.141-0.563c4.03-1.969,7.383-4.688,10.055-8.156
		c2.672-3.468,4.476-6.656,5.414-9.563L223.073,395.545z M219.979,427.186c0.092-3.749,0.141-6.375,0.141-7.875v-9.281
		c0-1.688-0.048-3.703-0.141-6.047l3.375,1.828l-1.125,0.844v14.063c0,1.595,0.046,3.279,0.141,5.063L219.979,427.186z"/>
	<path fill="#F4F5F1" d="M246.698,402.014c0-3.281-0.048-5.906-0.141-7.875l3.375,1.688l-1.266,0.844v5.344h1.406l1.406-1.406
		l2.25,2.25h-5.063v6.891l4.078-1.688l0.281,0.422l-4.359,2.531v12.375c0,1.498-0.892,2.576-2.672,3.234
		c0-1.125-1.173-2.018-3.516-2.672v-0.563c1.125,0.094,2.131,0.186,3.023,0.281c0.89,0.092,1.288-0.328,1.195-1.266v-10.406
		c-2.439,1.406-3.845,2.391-4.219,2.953l-1.688-2.391c0.936-0.188,2.905-0.891,5.906-2.109v-7.594h-2.531l-1.828,0.281l-1.125-1.125
		H246.698z M261.183,410.029c0-4.125-0.048-6.843-0.141-8.156l3.234,1.547l-1.266,0.844v5.344l5.063-1.406l0.844-1.266l2.25,1.406
		l-0.984,0.844c0,1.595-0.024,3.188-0.07,4.781c-0.048,1.595-0.189,2.79-0.422,3.586c-0.235,0.797-1.009,1.477-2.32,2.039
		c0-1.125-1.079-1.921-3.234-2.391v-0.563c1.688,0.188,2.764,0.234,3.234,0.141c0.468-0.093,0.749-0.703,0.844-1.828
		c0.092-1.125,0.141-3.094,0.141-5.906l-5.344,1.406c0,5.156,0.046,8.345,0.141,9.563l-2.109,1.266
		c0.092-2.343,0.141-5.813,0.141-10.406l-4.359,1.125v9.281c-0.095,1.688,0.514,2.482,1.828,2.391h10.125
		c1.406,0,2.18-0.633,2.32-1.898s0.211-2.93,0.211-4.992h0.703c0,1.032,0.07,2.273,0.211,3.727c0.141,1.454,0.633,2.32,1.477,2.602
		c-0.657,1.406-1.828,2.109-3.516,2.109h-12.234c-2.158,0-3.142-1.08-2.953-3.234v-9.563l-1.828,0.563l-0.844,0.703l-1.547-0.984
		l4.219-1.125c0-3-0.048-5.109-0.141-6.328l3.094,1.406l-1.125,0.844v3.656L261.183,410.029z M257.526,394.42l3.094,1.828
		l-1.125,0.422c-0.563,0.844-1.266,1.969-2.109,3.375h11.25l1.688-1.688l2.531,2.531h-15.891c-1.595,2.25-3.188,4.126-4.781,5.625
		l-0.422-0.281c1.217-1.688,2.342-3.516,3.375-5.484C256.166,398.779,256.964,396.67,257.526,394.42z"/>
	<path fill="#F4F5F1" d="M278.058,398.498h7.313l1.406-1.406l2.25,2.25c-0.844,0.094-1.876,1.103-3.094,3.023
		c-1.22,1.922-2.439,3.82-3.656,5.695h4.078l0.984-1.406l2.109,1.828l-1.125,0.844c-0.563,3.656-1.406,6.984-2.531,9.984
		c2.342,1.876,5.225,3.023,8.648,3.445c3.421,0.422,8.319,0.352,14.695-0.211v0.563c-1.876,0.375-2.813,1.17-2.813,2.391
		c-6.469,0-11.017-0.307-13.641-0.914c-2.626-0.611-5.203-1.945-7.734-4.008c-2.063,2.531-4.689,4.5-7.875,5.906l-0.281-0.422
		c2.813-1.688,5.108-3.938,6.891-6.75c-1.22-1.594-2.485-3.984-3.797-7.172l0.422-0.141c1.406,2.625,2.764,4.594,4.078,5.906
		c1.125-2.905,1.828-5.906,2.109-9h-4.5l-0.844,0.984l-1.828-1.688c1.125-0.75,2.32-2.132,3.586-4.148
		c1.266-2.016,2.131-3.586,2.602-4.711h-4.641l-1.688,0.281L278.058,398.498z M290.995,399.904c3.28-0.374,6.304-0.937,9.07-1.688
		c2.764-0.75,4.522-1.406,5.273-1.969l2.391,2.531c-1.033,0-2.18,0.094-3.445,0.281c-1.266,0.188-2.509,0.375-3.727,0.563v8.156
		h3.094l1.688-1.688l2.531,2.531h-7.313v9.141h3.938l1.688-1.688l2.531,2.531h-14.203l-1.125,1.266l-1.828-1.828l0.984-0.844v-6.469
		c0-1.875-0.048-3.608-0.141-5.203l2.953,1.406l-0.984,0.703v10.125h4.359v-18c-2.25,0.281-4.781,0.516-7.594,0.703L290.995,399.904
		z"/>
	<path fill="#F4F5F1" d="M319.542,409.748c0-4.5-0.048-8.39-0.141-11.672l2.25,1.406h9.984c0-1.688-0.751-3.327-2.25-4.922
		l0.281-0.281c2.531,1.125,3.913,2.087,4.148,2.883c0.233,0.797-0.07,1.57-0.914,2.32h7.734l2.109-1.969l2.672,2.813h-23.906
		c0.092,7.501-0.048,12.398-0.422,14.695c-0.376,2.298-1.173,4.43-2.391,6.398c-1.22,1.969-3.001,3.748-5.344,5.344l-0.281-0.422
		c4.219-3.938,6.374-9.188,6.469-15.75c-2.626,1.969-4.313,3.609-5.063,4.922l-1.828-2.25
		C313.963,412.795,316.259,411.624,319.542,409.748z M313.636,401.17c2.155,1.5,3.421,2.72,3.797,3.656
		c0.374,0.938,0.211,1.781-0.492,2.531c-0.703,0.751-1.125,0.773-1.266,0.07s-0.422-1.64-0.844-2.813
		c-0.422-1.172-0.914-2.227-1.477-3.164L313.636,401.17z M325.87,423.951c0-6.843-0.048-11.483-0.141-13.922l3.234,1.547
		l-1.266,0.984v11.391h4.922v-18.703h-5.344c-1.22,0-2.345,0.141-3.375,0.422l-1.266-1.266h17.297l1.969-1.828l2.531,2.672h-9.984
		v7.734h5.063l1.969-1.828l2.391,2.672h-9.422v10.125h5.906l2.25-1.969l2.672,2.813h-21.375c-1.22,0-2.345,0.141-3.375,0.422
		l-1.266-1.266H325.87z"/>
	<path fill="#F4F5F1" d="M353.714,417.201h0.563c-0.095,2.25-0.329,3.845-0.703,4.781c-0.376,0.938-0.914,1.5-1.617,1.688
		c-0.703,0.186-1.22,0-1.547-0.563c-0.329-0.563,0.022-1.218,1.055-1.969C352.494,420.389,353.244,419.077,353.714,417.201z
		 M366.511,412.561c0,0.563,0.046,1.125,0.141,1.688l-2.25,0.703c0.092-0.844,0.141-1.64,0.141-2.391h-8.859v0.844l-2.109,0.844
		c0.093-1.499,0.141-2.953,0.141-4.359s-0.048-2.813-0.141-4.219l2.391,1.125h8.578v-3.234h-7.594v0.563l-2.109,0.844
		c0.093-1.313,0.141-2.624,0.141-3.938c0-1.313-0.048-2.578-0.141-3.797l1.969,1.125h7.734c0-1.031-0.049-2.391-0.141-4.078
		l3.375,1.406l-1.266,0.984v1.688h7.594l0.984-1.266l2.25,1.547l-1.125,0.984c0,1.781,0.046,3.142,0.141,4.078l-2.109,0.844v-0.984
		h-7.734v3.234h8.719l0.844-1.266l2.25,1.406l-0.984,0.984c0,2.25,0.046,3.938,0.141,5.063l-2.109,0.844v-1.266H366.511z
		 M355.683,407.639v4.078h8.859v-4.078H355.683z M356.948,399.201v3.516h7.594v-3.516H356.948z M358.073,422.686
		c0-3.281-0.048-5.577-0.141-6.891l3.234,1.406l-1.125,1.125v3.797c-0.189,1.406,0.468,2.061,1.969,1.969h6.891
		c1.125,0.092,1.779-0.471,1.969-1.688c0.187-1.218,0.327-2.859,0.422-4.922h0.563c0.187,2.25,0.468,3.704,0.844,4.359
		c0.373,0.656,0.89,1.125,1.547,1.406c-0.844,1.873-2.439,2.717-4.781,2.531h-7.734
		C359.104,425.965,357.885,424.936,358.073,422.686z M363.417,415.514l0.422-0.281c1.874,1.125,3.069,2.063,3.586,2.813
		c0.514,0.751,0.468,1.547-0.141,2.391c-0.611,0.844-1.125,0.61-1.547-0.703C365.315,418.42,364.542,417.014,363.417,415.514z
		 M366.511,399.201v3.516h7.734v-3.516H366.511z M366.511,407.639v4.078h8.859v-4.078H366.511z M374.245,415.936
		c1.779,0.844,3.115,1.641,4.008,2.391c0.89,0.751,1.312,1.524,1.266,2.32c-0.049,0.797-0.306,1.359-0.773,1.688
		c-0.471,0.329-1.033-0.258-1.688-1.758c-0.657-1.499-1.688-2.905-3.094-4.219L374.245,415.936z"/>
	<path fill="#F4F5F1" d="M398.292,394.561l3.375,1.406l-1.266,1.125v2.953h1.969l1.969-1.969l2.531,2.813h-6.469v5.063h2.109
		c0.844-0.844,2.015-2.132,3.516-3.867c1.498-1.734,2.999-3.819,4.5-6.258l2.391,2.25l-1.266,0.563
		c-2.439,2.813-4.641,5.251-6.609,7.313h7.453l2.25-2.109l2.813,2.953h-13.359c-2.063,1.876-4.032,3.516-5.906,4.922h9.563
		l1.125-1.547l2.391,1.688l-1.266,1.125c0,3.75,0,6.517,0,8.297c0,1.781,0.046,3.234,0.141,4.359l-2.109,0.844v-2.391h-12.094v1.969
		l-2.109,0.844c0.092-0.844,0.141-2.346,0.141-4.5c0-2.156,0-4.733,0-7.734c-3.094,1.781-6.047,3.188-8.859,4.219l-0.281-0.422
		c3.467-1.78,6.515-3.608,9.141-5.484c0-0.655-0.049-1.499-0.141-2.531l2.109,1.125c2.155-1.594,4.078-3.187,5.766-4.781h-12.094
		c-1.22,0-2.345,0.141-3.375,0.422l-1.266-1.266h13.359v-5.063h-4.5c-1.22,0-2.345,0.141-3.375,0.422l-1.266-1.266h9.141
		C398.433,397.514,398.384,395.686,398.292,394.561z M396.042,413.264v3.938h12.094v-4.641h-10.828L396.042,413.264z
		 M396.042,418.045v5.203h12.094v-5.203H396.042z"/>
	<path fill="#F4F5F1" d="M434.714,403.139c0,10.969,0.046,18.141,0.141,21.516l-1.969,1.125v-2.953h-7.313v2.391l-1.969,1.125
		c0.092-4.406,0.141-8.789,0.141-13.148s-0.049-8.695-0.141-13.008l2.109,1.266h1.406c0.936-3.187,1.452-5.625,1.547-7.313
		l3.094,1.688c-0.938,0.47-2.204,2.344-3.797,5.625h4.641l1.406-1.406l2.109,2.109L434.714,403.139z M425.573,402.295v9h7.313v-9
		H425.573z M425.573,412.139v9.844h7.313v-9.844H425.573z M441.604,394.279l3.094,1.828c-0.752,0.47-1.923,2.391-3.516,5.766h7.594
		l1.547-1.547l2.109,2.109l-1.266,0.984c-0.189,10.969-0.446,17.18-0.773,18.633c-0.33,1.454-0.798,2.461-1.406,3.023
		c-0.611,0.563-1.571,1.076-2.883,1.547c-0.471-1.502-2.018-2.627-4.641-3.375v-0.703c2.342,0.47,4.029,0.703,5.063,0.703
		c1.03,0,1.663-0.796,1.898-2.391c0.232-1.594,0.443-7.641,0.633-18.141h-8.156c-1.688,2.72-3.47,5.016-5.344,6.891l-0.422-0.281
		c1.969-3,3.421-5.672,4.359-8.016C440.431,398.968,441.134,396.623,441.604,394.279z M439.073,408.061
		c2.25,1.688,3.632,3.094,4.148,4.219c0.514,1.125,0.397,2.157-0.352,3.094c-0.752,0.938-1.29,0.47-1.617-1.406
		c-0.33-1.875-1.149-3.703-2.461-5.484L439.073,408.061z"/>
	<path fill="#F4F5F1" d="M474.229,417.061c0,4.407,0.046,7.357,0.141,8.859l-2.25,1.266c0.092-2.064,0.141-5.437,0.141-10.125
		h-10.266c-1.22,0-2.345,0.141-3.375,0.422l-1.266-1.266h14.906c0-2.156-0.049-3.89-0.141-5.203l3.375,1.547l-1.266,0.984v2.672
		h9.844l2.25-2.25l3.094,3.094H474.229z M463.683,409.607l8.016-2.391l0.281,0.422c-5.438,2.438-8.486,4.126-9.141,5.063
		l-1.688-2.25c0.373-0.281,0.563-0.796,0.563-1.547v-7.172c0-3.281-0.049-5.813-0.141-7.594l3.234,1.406l-1.125,1.125v4.781h5.484
		l1.547-1.547l2.391,2.391h-9.422V409.607z M474.089,399.342c0-1.594-0.049-3.281-0.141-5.063l3.234,1.547l-1.125,1.125v5.625
		c1.779-0.844,3.234-1.617,4.359-2.32s2.531-1.805,4.219-3.305l2.391,2.25c-1.314,0.188-2.696,0.656-4.148,1.406
		c-1.455,0.751-3.727,1.688-6.82,2.813v4.5c0,1.032,0.654,1.547,1.969,1.547h5.766c0.749,0,1.266-0.374,1.547-1.125
		c0.281-0.75,0.468-2.156,0.563-4.219h0.563c0.092,1.5,0.232,2.672,0.422,3.516c0.187,0.844,0.703,1.359,1.547,1.547
		c-0.471,0.844-1.009,1.384-1.617,1.617c-0.611,0.234-1.385,0.352-2.32,0.352h-7.453c-1.969,0.094-2.953-0.655-2.953-2.25V399.342z"
		/>
	<path fill="#F4F5F1" d="M504.323,400.045c0-1.499-0.049-3.234-0.141-5.203l3.375,1.688l-1.266,1.125v25.875h5.766v-23.344
		c0-1.313-0.049-3.094-0.141-5.344l3.516,1.688l-1.406,0.984v20.25c3.562-5.344,5.998-10.547,7.313-15.609l3.375,2.391l-1.547,0.703
		c-3.375,6.376-6.423,10.922-9.141,13.641v4.641h6.609l2.25-2.25l3.094,3.094h-28.828c-1.22,0-2.345,0.141-3.375,0.422l-1.266-1.266
		h11.813V400.045z M494.901,402.576c4.311,5.906,6.609,9.586,6.891,11.039c0.281,1.454,0,2.672-0.844,3.656
		s-1.431,0.305-1.758-2.039c-0.33-2.343-1.898-6.469-4.711-12.375L494.901,402.576z"/>
	<path fill="#F4F5F1" d="M536.948,419.873l5.344-4.781l0.422,0.422c-1.501,1.688-2.742,3.188-3.727,4.5
		c-0.984,1.313-1.853,2.579-2.602,3.797l-2.109-1.969c0.563-0.563,0.795-1.218,0.703-1.969v-12.938h-1.828
		c-0.752,0-1.642,0.141-2.672,0.422l-1.266-1.266h5.625l0.984-1.406l2.531,1.828l-1.406,0.984V419.873z M533.011,395.123
		l0.422-0.281c1.498,0.938,2.553,1.735,3.164,2.391c0.608,0.656,0.89,1.289,0.844,1.898c-0.049,0.61-0.376,1.195-0.984,1.758
		c-0.611,0.563-1.055,0.188-1.336-1.125C534.839,398.451,534.136,396.904,533.011,395.123z M541.589,408.904h12.516l1.125-1.406
		l2.531,2.25l-1.406,0.703c-1.406,3.75-3.094,6.891-5.063,9.422c2.718,2.157,6.139,3.423,10.266,3.797v0.422
		c-1.877,0.467-2.861,1.17-2.953,2.109c-3.283-1.125-6.142-2.859-8.578-5.203c-3.938,3.186-8.578,5.154-13.922,5.906l-0.141-0.422
		c5.998-1.783,10.217-4.078,12.656-6.891c-1.969-2.905-3.283-6.188-3.938-9.844h-0.703l-1.266,0.281L541.589,408.904z
		 M554.526,403.279c0,0.938,0.514,1.406,1.547,1.406c1.03,0,1.99-0.117,2.883-0.352c0.89-0.233,1.522,0,1.898,0.703
		c0.373,0.703,0.397,1.103,0.07,1.195c-0.33,0.094-1.617,0.141-3.867,0.141h-2.25c-1.688,0-2.485-0.75-2.391-2.25v-7.031h-6.188
		c0.092,3.188-0.376,5.743-1.406,7.664c-1.033,1.922-3.188,3.727-6.469,5.414l-0.281-0.422c2.999-2.343,4.757-4.382,5.273-6.117
		c0.514-1.734,0.773-3.257,0.773-4.57c0-1.313-0.049-2.624-0.141-3.938l2.25,1.125h6.047l0.984-1.406l2.391,1.828l-1.125,0.844
		V403.279z M545.386,409.748c1.312,4.126,2.813,7.031,4.5,8.719c1.779-2.25,3.234-5.155,4.359-8.719H545.386z"/>
	<path fill="#F4F5F1" d="M572.526,421.42l5.484-4.781l0.281,0.422c-3.283,4.219-5.298,7.031-6.047,8.438l-2.109-2.391
		c0.373-0.563,0.563-1.453,0.563-2.672v-12.656h-3.656h1.266c-0.563,0-1.36,0.141-2.391,0.422l-1.266-1.266h5.766l1.547-1.547
		l1.969,1.969l-1.406,0.984V421.42z M568.729,395.545l0.141-0.422c2.061,0.938,3.491,1.735,4.289,2.391
		c0.795,0.656,1.195,1.313,1.195,1.969c0,0.656-0.26,1.219-0.773,1.688c-0.517,0.47-1.079-0.022-1.688-1.477
		C571.282,398.24,570.228,396.858,568.729,395.545z M584.901,407.076c0-6.28-0.049-10.358-0.141-12.234l3.375,1.547l-1.125,1.125
		v9.563h6.328l1.828-1.828l2.531,2.672h-10.688v12.797c0,1.876,0.046,3.607,0.141,5.203l-2.391,0.984
		c0.092-2.908,0.141-5.109,0.141-6.609V407.92h-7.172h2.109c-1.125,0-2.204,0.141-3.234,0.422l-1.266-1.266H584.901z"/>
	<path fill="#F4F5F1" d="M280.167,466.308c1.217,0.188,2.413,0.329,3.586,0.422c1.171,0.092,1.709-0.422,1.617-1.547v-7.453
		c-4.126,1.688-6.376,2.86-6.75,3.516l-1.688-2.813c1.406-0.188,4.219-0.937,8.438-2.25v-7.032h-3.797
		c-1.22,0-2.345,0.142-3.375,0.423l-1.266-1.267h8.438v-6.469c-2.158,0.281-4.5,0.563-7.031,0.844v-0.563
		c1.969-0.281,4.265-0.773,6.891-1.477c2.624-0.703,4.452-1.521,5.484-2.461l2.109,2.531c-1.595,0.189-3.423,0.471-5.484,0.844v6.75
		h7.453c-0.189-5.248-0.33-8.859-0.422-10.828l3.656,1.688l-1.406,0.984c0,2.158,0.046,4.877,0.141,8.156h7.313l1.969-1.969
		l2.813,2.813h-11.953c0.281,4.782,0.749,8.064,1.406,9.845c2.25-2.719,4.03-5.484,5.344-8.297l2.391,2.391l-1.547,0.563
		c-1.125,1.688-2.953,4.078-5.484,7.172c2.155,3.094,4.781,5.156,7.875,6.188l1.125-6.188h0.563c-0.281,4.5,0.046,7.264,0.984,8.297
		c0.936,1.029-0.189,1.006-3.375-0.07c-3.188-1.08-6.047-3.397-8.578-6.961c-2.531,1.969-5.72,3.704-9.563,5.203l-0.141-0.563
		c3.938-2.156,6.891-4.219,8.859-6.188c-0.844-2.156-1.455-5.953-1.828-11.392h-7.594v6.47l6.047-1.828l0.281,0.422l-6.328,2.672
		v9.422c0,1.779-1.125,2.998-3.375,3.656c0-1.221-1.266-2.25-3.797-3.094V466.308z M300.276,439.447
		c1.688,0.752,3.023,1.455,4.008,2.109c0.984,0.658,1.522,1.291,1.617,1.898c0.092,0.611-0.141,1.244-0.703,1.898
		c-0.563,0.658-1.125,0.4-1.688-0.773c-0.563-1.17-1.736-2.742-3.516-4.711L300.276,439.447z"/>
	<path fill="#F4F5F1" d="M322.495,448.025c0,5.157,0.046,8.392,0.141,9.704l-2.109,0.844c0.092-2.624,0.141-5.718,0.141-9.281
		c-2.063,3.375-4.408,6.095-7.031,8.156l-0.422-0.281c3.28-3.656,5.671-7.687,7.172-12.095h-4.078l-1.266,0.281l-1.125-1.125h6.75
		c0-3.467-0.048-5.811-0.141-7.031l3.094,1.266l-1.125,1.125v4.641h1.828l1.828-1.688l2.109,2.531h-5.766v2.109
		c1.688,0.752,2.905,1.406,3.656,1.969c0.749,0.563,1.125,1.149,1.125,1.759c0,0.61-0.211,1.219-0.633,1.828
		c-0.422,0.61-0.892,0.305-1.406-0.914C324.721,450.605,323.807,449.34,322.495,448.025z M318.276,460.683h0.563
		c0.092,2.438,0.022,4.078-0.211,4.922c-0.235,0.844-0.657,1.428-1.266,1.758c-0.611,0.326-1.244,0.303-1.898-0.07
		c-0.657-0.377-0.47-1.007,0.563-1.898C317.057,464.503,317.806,462.933,318.276,460.683z M322.636,459.136l3.094,1.547
		l-1.125,0.984v4.078c-0.095,1.029,0.514,1.498,1.828,1.406h8.438c0.844-0.096,1.358-0.633,1.547-1.617
		c0.187-0.984,0.327-2.367,0.422-4.148h0.563c0.092,1.781,0.187,2.977,0.281,3.586c0.092,0.61,0.563,1.243,1.406,1.898
		c-0.844,1.311-2.063,1.92-3.656,1.828h-10.547c-1.501,0.092-2.204-0.799-2.109-2.672
		C322.776,463.026,322.728,460.73,322.636,459.136z M326.854,457.87l0.281-0.422c2.813,1.313,4.452,2.368,4.922,3.164
		c0.468,0.797,0.374,1.617-0.281,2.461c-0.657,0.844-1.22,0.633-1.688-0.633C329.619,461.175,328.542,459.651,326.854,457.87z
		 M329.386,439.307l1.969,1.266h8.859l0.984-1.406l2.25,1.688l-1.125,0.984v10.688c0,1.969,0.046,3.423,0.141,4.359l-1.969,0.844
		v-1.969h-9.141v1.547l-1.969,0.703c0.092-2.531,0.141-5.883,0.141-10.056C329.526,443.785,329.478,440.902,329.386,439.307z
		 M331.354,441.416v3.938h9.141v-3.938H331.354z M331.354,446.197v3.798h9.141v-3.798H331.354z M331.354,450.839v4.078h9.141v-4.078
		H331.354z M339.229,460.823l0.422-0.422c2.155,1.313,3.608,2.368,4.359,3.164c0.749,0.797,0.773,1.711,0.07,2.742
		c-0.703,1.029-1.266,0.865-1.688-0.492C341.972,464.457,340.917,462.792,339.229,460.823z"/>
	<path fill="#F4F5F1" d="M356.667,464.058l5.484-5.203l0.422,0.422c-1.782,2.25-3.188,4.008-4.219,5.273
		c-1.032,1.266-1.876,2.412-2.531,3.445l-1.828-1.828c0.563-0.655,0.796-1.453,0.703-2.391v-13.078h-1.688
		c-0.751,0-1.642,0.141-2.672,0.422l-1.266-1.266h5.484l1.125-1.688l2.25,1.97l-1.266,1.125V464.058z M352.589,439.588l0.281-0.563
		c2.155,0.844,3.656,1.572,4.5,2.18c0.844,0.611,1.218,1.336,1.125,2.18c-0.095,0.844-0.329,1.432-0.703,1.758
		c-0.376,0.33-0.844-0.092-1.406-1.266C355.823,442.707,354.558,441.275,352.589,439.588z M373.964,437.197l3.234,1.969
		l-1.406,0.563c-1.406,2.25-2.721,4.359-3.938,6.328h3.234l1.125-1.547l2.391,1.969l-1.266,0.844c0,4.689,0.046,7.595,0.141,8.72
		l-2.109,0.984v-1.688h-2.531v10.125c0,1.219,0.608,1.779,1.828,1.688h2.672c1.03,0,1.593-0.469,1.688-1.406
		c0.092-0.937,0.187-2.531,0.281-4.781h0.563c0.092,1.313,0.211,2.555,0.352,3.727c0.141,1.173,0.633,1.852,1.477,2.039
		c-0.657,1.406-1.736,2.109-3.234,2.109h-4.359c-2.158,0.186-3.188-0.703-3.094-2.672v-10.828h-2.391
		c-0.189,4.313-1.195,7.547-3.023,9.703c-1.828,2.154-4.9,3.889-9.211,5.203l-0.281-0.422c3.375-1.406,5.952-3.164,7.734-5.273
		c1.779-2.109,2.718-5.18,2.813-9.211h-1.828v1.125l-2.109,0.703c0.092-1.406,0.141-3.516,0.141-6.328
		c0-2.813-0.049-4.827-0.141-6.048l2.109,1.266h6.188C372.604,442.309,373.588,439.355,373.964,437.197z M363.698,438.182
		l0.422-0.281c1.217,0.844,2.201,1.643,2.953,2.391c0.749,0.752,1.171,1.455,1.266,2.109c0.092,0.658-0.189,1.361-0.844,2.109
		c-0.657,0.752-1.149,0.352-1.477-1.195C365.688,441.768,364.915,440.059,363.698,438.182z M364.823,446.9v7.595h10.547V446.9
		H364.823z"/>
	<path fill="#F4F5F1" d="M391.683,454.284c0.844,0.422,1.266,1.125,1.266,2.109s-0.492,1.688-1.477,2.109s-1.853,0.375-2.602-0.141
		c-0.752-0.515-1.104-1.218-1.055-2.109c0.046-0.891,0.492-1.547,1.336-1.969S390.839,453.862,391.683,454.284z M391.612,462.722
		c0.795,0.516,1.171,1.219,1.125,2.109c-0.049,0.892-0.471,1.57-1.266,2.039c-0.798,0.467-1.596,0.467-2.391,0
		c-0.798-0.469-1.22-1.172-1.266-2.109c-0.049-0.937,0.373-1.64,1.266-2.109C389.971,462.183,390.814,462.207,391.612,462.722z"/>
</g>
</svg>
